<?xml version="1.0" encoding="UTF-8"?>
<!DOCTYPE svg PUBLIC "-//W3C//DTD SVG 1.1//EN" "http://www.w3.org/Graphics/SVG/1.1/DTD/svg11.dtd">
<!-- Creator: CorelDRAW X7 -->
<svg xmlns="http://www.w3.org/2000/svg" xml:space="preserve" width="130mm" height="43mm" version="1.1" style="shape-rendering:geometricPrecision; text-rendering:geometricPrecision; image-rendering:optimizeQuality; fill-rule:evenodd; clip-rule:evenodd"
viewBox="0 0 13000 4300"
 xmlns:xlink="http://www.w3.org/1999/xlink">
 <defs>
  <style type="text/css">
   <![CDATA[
    .str0 {stroke:#F7482D;stroke-width:282.22}
    .str1 {stroke:#F7482D;stroke-width:282.22}
    .str2 {stroke:black;stroke-width:70.56}
    .fil0 {fill:none}
    .fil3 {fill:none;fill-rule:nonzero}
    .fil1 {fill:#F7482D}
    .fil2 {fill:black;fill-rule:nonzero}
   ]]>
  </style>
 </defs>
 <g id="Layer_x0020_1">
  <metadata id="CorelCorpID_0Corel-Layer"/>
  <g id="_1975478385952">
   <g>
    <path class="fil0 str0" d="M518 272c277,-119 600,11 719,288l556 1296 556 1297 -197 931 -810 -500 -1112 -2593c-118,-277 11,-600 288,-719l0 0z"/>
    <path class="fil0 str1" d="M1257 613c-19,-60 -49,-118 -88,-168 -184,-240 -528,-285 -767,-100 -240,184 -285,528 -100,768 184,239 528,284 767,100"/>
    <g>
     <path class="fil1" d="M1505 3183c105,-48 205,-6 270,43 6,-82 40,-185 145,-233 133,-60 284,1 349,144 17,37 25,75 27,114l-198 91 -85 -69c-17,-14 -46,-1 -47,21l-7 198 -54 -45c-17,-13 -46,0 -47,22l-2 70 -154 -124c-17,-14 -46,-1 -46,21l-4 110 -198 90c-29,-27 -52,-58 -69,-95 -65,-143 -13,-298 120,-358z"/>
     <path class="fil1" d="M1708 3565l2 -70 154 124c9,7 20,8 30,4 10,-5 16,-14 17,-25l2 -71 55 45c17,13 46,0 46,-22l7 -197 55 44c9,7 20,8 30,4l186 -85c-15,108 -74,231 -148,388 -21,43 -43,90 -66,140 -3,6 -8,11 -14,14 -6,3 -13,4 -20,2 -52,-16 -102,-30 -149,-43 -166,-46 -298,-82 -390,-142l186 -85c10,-4 17,-14 17,-25z"/>
    </g>
   </g>
   <path class="fil2" d="M2087 453c-10,-25 -16,-52 -16,-81 0,-55 20,-102 59,-141 39,-39 86,-58 140,-58 55,0 102,19 142,57 18,20 33,42 43,66l830 2050 587 -1174c10,-28 26,-54 50,-78 38,-38 85,-58 140,-58 54,0 101,20 141,58 16,17 28,35 37,53l597 1195 830 -2046c11,-24 26,-46 46,-66 39,-38 85,-57 139,-57 55,0 101,19 141,58 39,39 58,86 58,141 0,29 -4,56 -15,81l-991 2442c-10,27 -25,51 -46,72 -40,40 -87,59 -141,59 -55,0 -101,-19 -139,-59 -22,-20 -37,-43 -47,-68l-608 -1218 -619 1236c-11,18 -24,35 -38,50 -40,40 -87,59 -141,59 -55,0 -102,-19 -140,-59 -22,-21 -38,-45 -48,-72l-991 -2442z"/>
   <path id="1" class="fil2" d="M6252 2230l-330 681c-9,20 -23,39 -40,58 -40,38 -87,57 -141,57 -56,0 -103,-19 -141,-58 -39,-39 -58,-86 -58,-141 0,-38 10,-72 30,-103l1180 -2432c9,-22 23,-41 42,-60 38,-40 85,-59 141,-59 54,0 101,19 141,59 16,16 29,34 38,52l1180 2432c23,32 34,69 34,111 0,55 -19,102 -59,141 -39,39 -85,58 -140,58 -55,0 -103,-19 -141,-57 -18,-19 -31,-38 -40,-58l-2 0 -330 -681 -1364 0zm1171 -398l-488 -1005 -490 1005 978 0z"/>
   <path id="2" class="fil2" d="M9751 571l-613 0 0 861 613 0c119,0 221,-42 305,-126 85,-85 127,-186 127,-305 0,-118 -42,-220 -127,-304 -84,-84 -186,-126 -305,-126zm-613 1261l0 991c0,56 -20,104 -60,144 -40,40 -87,59 -143,59 -56,0 -104,-19 -143,-59 -41,-40 -60,-88 -60,-144l0 -2447c0,-56 19,-104 60,-144 39,-40 87,-59 143,-59l816 -2c229,0 425,80 588,242 162,162 244,358 244,588 0,229 -82,425 -244,587 -163,163 -359,244 -588,244l-613 0z"/>
   <path id="3" class="fil2" d="M10857 485c-22,-33 -34,-71 -34,-113 0,-55 20,-102 59,-141 39,-39 86,-58 140,-58 56,0 103,19 142,57 15,16 28,34 38,52l616 901 632 -923c7,-11 16,-21 25,-30 38,-38 85,-57 140,-57 55,0 102,19 141,58 38,39 58,86 58,141 0,50 -17,93 -49,129l-748 1095 0 1231c0,56 -19,103 -57,142 -39,38 -86,57 -142,57 -54,0 -101,-19 -140,-57 -39,-39 -59,-86 -59,-142l0 -1230 -762 -1112z"/>
   <path id="4" class="fil3 str2" d="M2087 453c-10,-25 -16,-52 -16,-81 0,-55 20,-102 59,-141 39,-39 86,-58 140,-58 55,0 102,19 142,57 18,20 33,42 43,66l830 2050 587 -1174c10,-28 26,-54 50,-78 38,-38 85,-58 140,-58 54,0 101,20 141,58 16,17 28,35 37,53l597 1195 830 -2046c11,-24 26,-46 46,-66 39,-38 85,-57 139,-57 55,0 101,19 141,58 39,39 58,86 58,141 0,29 -4,56 -15,81l-991 2442c-10,27 -25,51 -46,72 -40,40 -87,59 -141,59 -55,0 -101,-19 -139,-59 -22,-20 -37,-43 -47,-68l-608 -1218 -619 1236c-11,18 -24,35 -38,50 -40,40 -87,59 -141,59 -55,0 -102,-19 -140,-59 -22,-21 -38,-45 -48,-72l-991 -2442z"/>
   <path id="5" class="fil3 str2" d="M6252 2230l-330 681c-9,20 -23,39 -40,58 -40,38 -87,57 -141,57 -56,0 -103,-19 -141,-58 -39,-39 -58,-86 -58,-141 0,-38 10,-72 30,-103l1180 -2432c9,-22 23,-41 42,-60 38,-40 85,-59 141,-59 54,0 101,19 141,59 16,16 29,34 38,52l1180 2432c23,32 34,69 34,111 0,55 -19,102 -59,141 -39,39 -85,58 -140,58 -55,0 -103,-19 -141,-57 -18,-19 -31,-38 -40,-58l-2 0 -330 -681 -1364 0zm1171 -398l-488 -1005 -490 1005 978 0z"/>
   <path id="6" class="fil3 str2" d="M9751 571l-613 0 0 861 613 0c119,0 221,-42 305,-126 85,-85 127,-186 127,-305 0,-118 -42,-220 -127,-304 -84,-84 -186,-126 -305,-126zm-613 1261l0 991c0,56 -20,104 -60,144 -40,40 -87,59 -143,59 -56,0 -104,-19 -143,-59 -41,-40 -60,-88 -60,-144l0 -2447c0,-56 19,-104 60,-144 39,-40 87,-59 143,-59l816 -2c229,0 425,80 588,242 162,162 244,358 244,588 0,229 -82,425 -244,587 -163,163 -359,244 -588,244l-613 0z"/>
   <path id="7" class="fil3 str2" d="M10857 485c-22,-33 -34,-71 -34,-113 0,-55 20,-102 59,-141 39,-39 86,-58 140,-58 56,0 103,19 142,57 15,16 28,34 38,52l616 901 632 -923c7,-11 16,-21 25,-30 38,-38 85,-57 140,-57 55,0 102,19 141,58 38,39 58,86 58,141 0,50 -17,93 -49,129l-748 1095 0 1231c0,56 -19,103 -57,142 -39,38 -86,57 -142,57 -54,0 -101,-19 -140,-57 -39,-39 -59,-86 -59,-142l0 -1230 -762 -1112z"/>
   <path class="fil2" d="M3562 3816c0,-83 -24,-153 -72,-210 -50,-61 -116,-91 -198,-91l-201 0 0 604 201 0c82,0 148,-30 199,-91 48,-58 71,-128 71,-212zm-34 0c0,83 -25,149 -74,199 -46,46 -100,70 -162,70l-167 0 0 -536 167 0c72,0 130,27 174,81 41,50 62,112 62,186z"/>
   <polygon id="1" class="fil2" points="5207,4119 5207,4085 4952,4085 4952,3807 5207,3807 5207,3770 4952,3770 4952,3549 5207,3549 5207,3515 4917,3515 4917,4119 "/>
   <path id="2" class="fil2" d="M6862 3963c0,-48 -17,-88 -49,-121 -12,-11 -28,-23 -47,-35 -19,-11 -42,-23 -69,-35 -42,-19 -70,-34 -84,-46 -25,-21 -38,-46 -38,-75 0,-32 12,-58 36,-78 22,-18 50,-28 83,-28 32,0 57,6 77,19 16,9 29,23 41,41l33 -14c-30,-53 -80,-80 -151,-80 -43,0 -79,13 -108,39 -30,26 -45,59 -45,101 0,42 14,75 44,101 17,16 50,34 98,56 25,11 46,21 63,30 16,9 28,17 36,25 30,26 45,60 45,100 0,42 -13,74 -38,96 -25,22 -59,32 -103,32 -76,0 -124,-36 -144,-108l-34 12c26,87 86,131 178,131 30,0 56,-4 78,-12 65,-24 98,-75 98,-151z"/>
   <polygon id="3" class="fil2" points="8242,4119 8242,3515 8208,3515 8208,4119 "/>
   <path id="4" class="fil2" d="M10218 3827l-238 0 0 35 199 0c-5,54 -28,103 -67,145 -52,57 -121,86 -206,86 -80,0 -146,-26 -199,-78 -52,-52 -78,-118 -78,-198 0,-80 26,-146 79,-198 52,-53 118,-79 198,-79 98,0 174,37 228,112l28 -21c-62,-83 -148,-125 -256,-125 -90,0 -165,30 -224,88 -58,58 -87,133 -87,223 0,91 29,166 87,224 58,58 133,87 224,87 96,0 173,-31 231,-93 54,-56 81,-125 81,-208z"/>
   <polygon id="5" class="fil2" points="12063,4129 12063,3515 12028,3515 12028,4040 11577,3510 11577,4119 11611,4119 11611,3606 "/>
  </g>
 </g>
</svg>
